<svg width="4096" height="4096" viewBox="0 0 4096 4096" fill="none" xmlns="http://www.w3.org/2000/svg">
<path d="M2907.14 0H1190.9C445.42 0 1 444.416 1 1189.89V2904.06C1 3651.58 445.42 4096 1190.9 4096H2905.09C3650.57 4096 4094.99 3651.58 4094.99 2906.11V1189.89C4097.04 444.416 3652.62 0 2907.14 0ZM922.609 2164.74H1489.91C1573.88 2164.74 1643.51 2234.37 1643.51 2318.34C1643.51 2402.3 1573.88 2471.94 1489.91 2471.94H922.609C838.64 2471.94 769.008 2402.3 769.008 2318.34C769.008 2234.37 838.64 2164.74 922.609 2164.74ZM2247.68 3241.98H922.609C838.64 3241.98 769.008 3172.35 769.008 3088.38C769.008 3004.42 838.64 2934.78 922.609 2934.78H2247.68C2331.65 2934.78 2401.28 3004.42 2401.28 3088.38C2401.28 3172.35 2333.7 3241.98 2247.68 3241.98ZM3175.43 3241.98H2796.55C2712.58 3241.98 2642.95 3172.35 2642.95 3088.38C2642.95 3004.42 2712.58 2934.78 2796.55 2934.78H3175.43C3259.4 2934.78 3329.03 3004.42 3329.03 3088.38C3329.03 3172.35 3259.4 3241.98 3175.43 3241.98ZM3175.43 2471.94H2042.88C1958.91 2471.94 1889.27 2402.3 1889.27 2318.34C1889.27 2234.37 1958.91 2164.74 2042.88 2164.74H3175.43C3259.4 2164.74 3329.03 2234.37 3329.03 2318.34C3329.03 2402.3 3259.4 2471.94 3175.43 2471.94Z" fill="white"/>
</svg>
